<svg width="19" height="19" viewBox="0 0 19 19" fill="none" xmlns="http://www.w3.org/2000/svg">
<rect width="19" height="19" rx="5" fill="white"/>
<path d="M12.4805 15.9648V15.543C12.5586 15.5195 12.6875 15.4863 12.8672 15.4434C13.1211 15.3809 13.3105 15.3164 13.4355 15.25C13.5059 15.1289 13.541 14.9609 13.541 14.7461L13.5352 14.0547L13.5469 12.7188L13.541 12.4023C13.5684 11.6289 13.582 11.2305 13.582 11.207L13.5703 10.4277L13.5879 10.1113L13.5586 9.44336L13.5527 9.19141C13.5488 9.15234 13.5352 9.08984 13.5117 9.00391C13.3516 8.92969 13.0918 8.88281 12.7324 8.86328C12.6465 8.85938 12.5781 8.85352 12.5273 8.8457L12.5098 8.33008L14.1855 8.40039C14.3926 8.4082 14.5215 8.41211 14.5723 8.41211C14.8027 8.41211 15.1719 8.39648 15.6797 8.36523C15.9648 8.3457 16.1445 8.33398 16.2188 8.33008C16.2227 8.4043 16.2246 8.4668 16.2246 8.51758C16.2246 8.58398 16.2207 8.66992 16.2129 8.77539C16.0566 8.83008 15.877 8.88281 15.6738 8.93359C15.4746 8.98047 15.3105 9.0293 15.1816 9.08008C15.1582 9.18164 15.1465 9.32812 15.1465 9.51953C15.1465 9.6875 15.1523 9.82422 15.1641 9.92969C15.1523 10.5898 15.1465 11.0977 15.1465 11.4531L15.1523 13L15.1348 13.7852L15.1465 14.957L15.1406 15.1797C15.1406 15.2109 15.1484 15.2559 15.1641 15.3145C15.4023 15.3652 15.6191 15.4004 15.8145 15.4199C15.8496 15.4238 15.9688 15.4395 16.1719 15.4668C16.1875 15.584 16.1953 15.6816 16.1953 15.7598C16.1953 15.8027 16.1934 15.8691 16.1895 15.959C16.1387 15.959 16.0996 15.9609 16.0723 15.9648C15.9473 15.9727 15.875 15.9766 15.8555 15.9766C15.8281 15.9766 15.7773 15.9707 15.7031 15.959C15.6484 15.9512 15.3887 15.9238 14.9238 15.877L13.8867 15.8652C13.6797 15.8652 13.3789 15.8848 12.9844 15.9238C12.7266 15.9473 12.5586 15.9609 12.4805 15.9648Z" fill="black"/>
<g clip-path="url(#clip0_202_18)">
<path d="M12.9322 2.22117C11.695 2.22117 10.9005 1.9998 9.62559 1.9998C5.50609 1.9998 3.58547 4.34567 3.58547 6.7283C3.58547 8.1318 4.25047 8.5938 5.56209 8.5938C5.46934 8.3908 5.30309 8.16855 5.30309 7.17105C5.30309 4.38155 6.35572 3.56867 7.70409 3.51355C7.70409 3.51355 6.59809 14.36 3.38684 15.6612V15.998H7.71547L9.19247 8.99805H11.8971L12.5 7.24805H9.56172L10.2722 3.88192C11.0851 4.04817 11.8796 4.21442 12.563 4.21442C13.4126 4.21442 14.1887 3.95542 14.6131 1.99805C14.096 2.1643 13.5421 2.21942 12.9322 2.21942V2.22117Z" fill="black"/>
</g>
<defs>
<clipPath id="clip0_202_18">
<rect width="14" height="14" fill="white" transform="translate(2 2)"/>
</clipPath>
</defs>
</svg>
